# Blender v2.67 (sub 1) OBJ File: ''
# www.blender.org
o Soldado_Ficha.002
v 4.201710 0.078430 -4.263896
v 4.250519 -0.000000 0.013788
v 0.007878 -0.000000 0.013787
v 0.007879 0.000002 -4.252217
v -4.167627 0.000001 -4.292913
v -4.234763 -0.000000 0.013787
v -4.340147 -0.102687 4.179873
v 0.007878 -0.000002 4.256428
v 4.173847 -0.062870 4.245325
v 1.887736 7.654909 0.013789
v 1.695378 7.350000 -0.945637
v 1.885079 8.850000 -0.689336
v 1.695378 7.350000 1.160783
v 1.943741 8.850000 0.716914
v -1.679622 7.350000 1.160783
v -2.015978 8.850000 0.716914
v -1.901310 7.654909 0.013789
v -1.679622 7.350000 -0.945637
v -1.898654 8.850000 -0.689336
v 0.851628 9.000000 -0.131833
v 0.007878 8.850000 1.008157
v -0.835872 9.000000 -0.131833
v 0.007879 8.850000 -0.980580
v 0.007879 9.450001 -0.980578
v -0.639306 9.450001 -1.107166
v 0.655063 9.450001 -1.107166
v 0.851628 9.447129 -0.131831
v 1.258143 9.450001 -0.321217
v -0.835872 9.447129 -0.131831
v -1.242386 9.450001 -0.321217
v -0.907379 9.450001 0.929047
v 0.923135 9.450001 0.929048
v 0.007878 9.450001 1.008159
v 0.007878 9.450001 1.608159
v -1.038555 11.551018 -0.444545
v 0.007878 11.674141 0.091472
v -0.533795 11.550000 -0.999139
v 0.549552 11.550000 -0.999139
v 1.054312 11.550000 -0.444544
v 0.923135 11.550000 0.609534
v 0.007878 11.550000 1.182082
v -0.907379 11.551018 0.609534
v -2.801310 7.654909 0.013789
v -2.681329 8.850000 0.716914
v -2.198654 8.850000 -0.689336
v -2.603501 7.328975 5.159194
v -2.603501 7.755847 5.928382
v -2.603501 7.755847 5.159194
v -2.681329 7.328975 4.610357
v -2.604795 7.755846 4.610357
v -2.604795 7.755847 3.841169
v -2.015978 7.328975 4.610357
v -2.092513 7.755847 3.841169
v -2.092513 7.755846 4.610357
v -2.094430 7.328975 5.159194
v -2.094430 7.755847 5.159194
v -2.094430 7.755847 5.928382
v -2.348654 13.475481 4.672133
v -2.348966 13.475481 5.097421
v 2.758405 7.654909 0.013789
v 2.155748 8.850000 -0.689336
v 2.638424 8.850000 0.716914
v 0.007878 10.950001 1.402975
v -0.907379 10.950001 0.775180
v 0.923135 10.950001 0.775180
v 3.449309 9.838026 2.725722
v 3.449307 4.288024 2.725720
v 4.453027 5.338027 1.939481
v 4.453029 9.838026 1.939483
v 2.393495 9.838024 3.216519
v 2.393493 3.238027 3.216516
v 1.233490 4.288024 3.116429
v 1.233492 9.838024 3.116430
v 0.021393 5.338027 2.720898
v 0.021394 9.838026 2.720900
v 4.451293 9.838026 1.929635
v 4.451290 5.338027 1.929633
v 0.019657 5.338027 2.711050
v 0.019658 9.838026 2.711052
v 2.391758 9.838024 3.206670
v 3.447572 9.838026 2.715874
v 1.231755 9.838024 3.106582
v 3.447571 4.288024 2.715872
v 2.391757 3.238027 3.206667
v 1.231754 4.288024 3.106581
v 2.758405 6.347075 2.599469
v 2.638424 7.328977 2.628453
v 1.858405 6.347075 2.599469
v 1.973073 7.328977 2.628453
v -2.006696 6.347073 5.130208
v -2.695300 6.347073 5.130208
v -2.801310 6.347073 4.581373
v -1.901310 6.347073 4.581373
v -1.901310 6.347075 2.599469
v -2.015978 7.328977 2.628453
v -2.681329 7.328977 2.628453
v -2.801310 6.347075 2.599469
v -0.639306 10.950001 -1.107166
v 0.655063 10.950001 -1.107166
v -1.242386 10.950001 -0.380608
v 1.258143 10.950001 -0.380607
v 0.007879 7.350000 -1.528125
v 0.007878 7.349998 1.743271
v -2.119728 4.350000 0.013789
v -1.679622 4.350000 1.160783
v -1.679622 4.350000 -0.945637
v 0.007879 4.350000 -1.528125
v 1.695378 4.350000 -0.945637
v 2.135485 4.350000 0.013789
v 1.695378 4.350000 1.160783
v 0.007878 4.349998 1.743271
v -1.185364 0.600000 0.013787
v -0.835872 0.600000 0.857537
v -0.835872 0.600000 -0.829963
v 0.007878 0.600000 -1.179456
v 0.851628 0.600000 -0.829963
v 1.201121 0.600000 0.013787
v 0.851628 0.600000 0.857537
v 0.007878 0.600000 1.207030
v -4.234763 0.300000 0.013787
v -4.306656 0.291781 4.258469
v -4.202202 0.298427 -4.293431
v 0.007879 0.300002 -4.209065
v 4.163715 0.307183 -4.215595
v 4.250519 0.300000 0.013788
v 4.204389 0.240250 4.204911
v 0.007878 0.299998 4.256428
vn 0.613330 -0.471633 -0.633503
vn 0.710990 -0.703055 -0.012238
vn 0.003449 -0.999939 -0.007172
vn 0.012452 -0.660024 -0.751091
vn -0.532579 -0.606677 -0.590106
vn -0.707694 -0.706168 -0.020569
vn -0.620319 -0.608142 0.495285
vn 0.007050 -0.701346 0.712760
vn 0.534837 -0.571001 0.622761
vn 0.766137 -0.468764 -0.439558
vn 0.702475 0.076083 -0.707602
vn 0.263741 0.635823 -0.725364
vn 0.700736 0.112125 0.704520
vn -0.051851 0.881191 0.469832
vn -0.690481 0.100223 0.716361
vn 0.057619 0.882290 0.467116
vn -0.760765 -0.479537 -0.437300
vn -0.693014 0.070193 -0.717490
vn -0.262429 0.632954 -0.728324
vn 0.531541 0.844325 -0.067415
vn 0.000946 0.479415 0.877560
vn -0.529191 0.845729 -0.068026
vn 0.000336 0.360332 -0.932798
vn 0.000000 -0.905057 -0.425245
vn -0.341197 -0.621815 -0.704917
vn 0.341197 -0.621815 -0.704917
vn 0.465743 -0.884243 -0.033784
vn 0.772698 -0.618763 -0.141606
vn -0.465743 -0.884243 -0.033784
vn -0.772698 -0.618763 -0.141606
vn -0.642628 -0.616993 0.454237
vn 0.642628 -0.616993 0.454237
vn 0.000000 -0.936766 0.349925
vn 0.000000 -0.549364 0.835566
vn -0.670797 0.700888 -0.242378
vn 0.000458 0.999908 0.011322
vn -0.280709 0.682028 -0.675283
vn 0.281014 0.682150 -0.675008
vn 0.671133 0.700613 -0.242195
vn 0.635853 0.662526 0.395856
vn 0.000244 0.705802 0.708365
vn -0.635517 0.662801 0.395917
vn -0.701529 -0.446333 -0.555528
vn -0.634816 0.749962 0.185736
vn -0.353740 0.468490 -0.809534
vn -0.811975 -0.229621 0.536576
vn -0.541124 0.210730 0.814081
vn -0.901395 0.317759 0.294076
vn -0.981567 0.185797 -0.044069
vn -0.880093 0.395337 -0.262856
vn -0.519181 0.217841 -0.826411
vn 0.982086 0.183203 -0.043703
vn 0.519181 0.217841 -0.826411
vn 0.880245 0.395428 -0.262215
vn 0.811823 -0.230750 0.536302
vn 0.901212 0.317698 0.294687
vn 0.541124 0.210730 0.814081
vn 0.000366 0.846889 -0.531754
vn -0.000366 0.846797 0.531877
vn 0.701529 -0.446333 -0.555528
vn 0.353740 0.468490 -0.809534
vn 0.634816 0.749962 0.185736
vn 0.000031 0.221320 0.975188
vn -0.801843 0.113468 0.586627
vn 0.801813 0.113620 0.586657
vn 0.382031 0.682211 0.623371
vn 0.732566 -0.452528 0.508438
vn 0.912015 -0.305032 0.274087
vn 0.741661 0.607562 0.284158
vn 0.131443 0.653432 0.745445
vn 0.108646 -0.779839 0.616413
vn -0.514542 -0.452528 0.728294
vn -0.145756 0.682211 0.716453
vn -0.763268 -0.305032 0.569506
vn -0.599719 0.607532 0.520737
vn 0.297403 0.555864 -0.776238
vn 0.376171 -0.343760 -0.860378
vn -0.647755 -0.343791 -0.679830
vn -0.545000 0.555895 -0.627644
vn -0.110782 0.769951 -0.628376
vn -0.354991 0.733787 -0.579241
vn 0.135472 0.733818 -0.665670
vn 0.176275 -0.597583 -0.782159
vn -0.092227 -0.847102 -0.523331
vn -0.433149 -0.597552 -0.674734
vn 0.590381 -0.686758 0.423994
vn 0.572771 0.369671 0.731590
vn -0.591784 -0.686728 0.422040
vn -0.578051 0.366710 0.728904
vn 0.549760 -0.569750 0.610828
vn -0.550890 -0.568529 0.610920
vn -0.763115 -0.642323 0.071139
vn 0.761376 -0.644429 0.070589
vn 0.696036 -0.697928 -0.168554
vn 0.744255 0.631672 0.216865
vn -0.742088 0.633992 0.217505
vn -0.697714 -0.696310 -0.168279
vn -0.425886 0.106906 -0.898404
vn 0.425916 0.106937 -0.898404
vn -0.970733 0.119694 -0.208075
vn 0.970733 0.119907 -0.208045
vn 0.000000 0.168187 -0.985748
vn 0.000000 0.216163 0.976348
vn -0.993378 -0.110508 -0.030671
vn -0.699454 -0.102268 0.707297
vn -0.681906 -0.088748 -0.726005
vn 0.000000 -0.052278 -0.998627
vn 0.681906 -0.088748 -0.726005
vn 0.993500 -0.109470 -0.030671
vn 0.699454 -0.102268 0.707297
vn 0.000000 -0.076144 0.997070
vn -0.722282 0.691549 -0.004120
vn -0.472488 0.711539 0.520005
vn -0.464248 0.728751 -0.503342
vn -0.000122 0.743706 -0.668447
vn 0.463973 0.729026 -0.503189
vn 0.726402 0.687185 0.007477
vn 0.485275 0.704917 0.517228
vn 0.000000 0.718863 0.695120
vn -0.738762 0.673849 -0.011139
vn -0.561113 0.522233 0.642170
vn -0.612995 0.526933 -0.588672
vn 0.004486 0.724937 -0.688772
vn 0.537828 0.657582 -0.527512
vn 0.742454 0.669851 0.005341
vn 0.625416 0.557298 0.546098
vn 0.008118 0.674673 0.738060
s 1
f 1//1 2//2 3//3
f 1//1 3//3 4//4
f 4//4 3//3 5//5
f 6//6 5//5 3//3
f 6//6 3//3 7//7
f 8//8 7//7 3//3
f 9//9 8//8 3//3
f 9//9 3//3 2//2
f 10//10 11//11 12//12
f 13//13 10//10 14//14
f 15//15 16//16 17//17
f 18//18 17//17 19//19
f 14//14 12//12 20//20
f 21//21 22//22 16//16
f 16//16 22//22 19//19
f 23//23 19//19 22//22
f 12//12 23//23 20//20
f 21//21 14//14 20//20
f 24//24 25//25 26//26
f 27//27 24//24 26//26
f 27//27 26//26 28//28
f 24//24 29//29 25//25
f 29//29 30//30 25//25
f 29//29 31//31 30//30
f 27//27 28//28 32//32
f 33//33 31//31 29//29
f 27//27 32//32 33//33
f 33//33 34//34 31//31
f 33//33 32//32 34//34
f 35//35 36//36 37//37
f 38//38 37//37 36//36
f 39//39 38//38 36//36
f 40//40 39//39 36//36
f 41//41 40//40 36//36
f 41//41 36//36 42//42
f 42//42 36//36 35//35
f 43//43 44//44 45//45
f 46//46 47//47 48//48
f 49//49 50//50 51//51
f 52//52 53//53 54//54
f 55//55 56//56 57//57
f 54//54 50//50 58//58
f 48//48 56//56 59//59
f 60//60 61//61 62//62
f 63//63 41//41 42//42
f 63//63 42//42 64//64
f 63//63 65//65 40//40
f 63//63 40//40 41//41
f 34//34 32//32 65//65
f 34//34 64//64 31//31
f 34//34 63//63 64//64
f 34//34 65//65 63//63
f 66//66 67//67 68//68
f 66//66 68//68 69//69
f 67//67 66//66 70//70
f 67//67 70//70 71//71
f 72//72 71//71 70//70
f 72//72 70//70 73//73
f 72//72 73//73 74//74
f 73//73 75//75 74//74
f 76//76 69//69 77//77
f 69//69 68//68 77//77
f 78//78 74//74 79//79
f 74//74 75//75 79//79
f 80//80 70//70 66//66
f 80//80 66//66 81//81
f 81//81 66//66 69//69
f 81//81 69//69 76//76
f 79//79 75//75 82//82
f 75//75 73//73 82//82
f 82//82 73//73 80//80
f 73//73 70//70 80//80
f 77//77 68//68 83//83
f 68//68 67//67 83//83
f 83//83 67//67 84//84
f 67//67 71//71 84//84
f 85//85 72//72 74//74
f 85//85 74//74 78//78
f 84//84 71//71 72//72
f 84//84 72//72 85//85
f 86//86 87//87 88//88
f 88//88 87//87 89//89
f 77//77 83//83 81//81
f 77//77 81//81 76//76
f 80//80 81//81 83//83
f 80//80 83//83 84//84
f 80//80 84//84 85//85
f 80//80 85//85 82//82
f 79//79 82//82 78//78
f 82//82 85//85 78//78
f 12//12 61//61 10//10
f 10//10 61//61 60//60
f 14//14 61//61 12//12
f 14//14 62//62 61//61
f 10//10 89//89 14//14
f 10//10 88//88 89//89
f 14//14 89//89 62//62
f 62//62 89//89 87//87
f 62//62 87//87 60//60
f 60//60 87//87 86//86
f 60//60 86//86 10//10
f 10//10 86//86 88//88
f 50//50 48//48 58//58
f 58//58 48//48 59//59
f 56//56 58//58 59//59
f 56//56 54//54 58//58
f 49//49 51//51 52//52
f 52//52 51//51 53//53
f 55//55 47//47 46//46
f 55//55 57//57 47//47
f 50//50 53//53 51//51
f 50//50 54//54 53//53
f 56//56 47//47 57//57
f 56//56 48//48 47//47
f 55//55 54//54 56//56
f 55//55 52//52 54//54
f 49//49 46//46 50//50
f 50//50 46//46 48//48
f 90//90 46//46 91//91
f 90//90 55//55 46//46
f 92//92 93//93 91//91
f 91//91 93//93 90//90
f 49//49 91//91 46//46
f 49//49 92//92 91//91
f 93//93 52//52 90//90
f 90//90 52//52 55//55
f 94//94 95//95 93//93
f 93//93 95//95 52//52
f 95//95 49//49 52//52
f 95//95 96//96 49//49
f 96//96 92//92 49//49
f 96//96 97//97 92//92
f 97//97 93//93 92//92
f 97//97 94//94 93//93
f 43//43 94//94 97//97
f 43//43 17//17 94//94
f 44//44 43//43 96//96
f 96//96 43//43 97//97
f 16//16 96//96 95//95
f 16//16 44//44 96//96
f 17//17 95//95 94//94
f 17//17 16//16 95//95
f 16//16 45//45 44//44
f 16//16 19//19 45//45
f 19//19 17//17 45//45
f 45//45 17//17 43//43
f 98//98 38//38 99//99
f 98//98 37//37 38//38
f 98//98 35//35 37//37
f 98//98 100//100 35//35
f 101//101 99//99 39//39
f 39//39 99//99 38//38
f 100//100 42//42 35//35
f 100//100 64//64 42//42
f 65//65 101//101 40//40
f 40//40 101//101 39//39
f 25//25 99//99 26//26
f 25//25 98//98 99//99
f 25//25 100//100 98//98
f 25//25 30//30 100//100
f 28//28 26//26 101//101
f 101//101 26//26 99//99
f 30//30 64//64 100//100
f 30//30 31//31 64//64
f 32//32 28//28 65//65
f 65//65 28//28 101//101
f 22//22 33//33 29//29
f 22//22 21//21 33//33
f 23//23 22//22 24//24
f 24//24 22//22 29//29
f 21//21 20//20 33//33
f 33//33 20//20 27//27
f 20//20 24//24 27//27
f 20//20 23//23 24//24
f 102//102 18//18 23//23
f 23//23 18//18 19//19
f 11//11 23//23 12//12
f 11//11 102//102 23//23
f 15//15 21//21 16//16
f 15//15 103//103 21//21
f 103//103 13//13 21//21
f 21//21 13//13 14//14
f 104//104 15//15 17//17
f 104//104 105//105 15//15
f 106//106 104//104 18//18
f 18//18 104//104 17//17
f 107//107 106//106 102//102
f 102//102 106//106 18//18
f 108//108 107//107 11//11
f 11//11 107//107 102//102
f 109//109 11//11 10//10
f 109//109 108//108 11//11
f 110//110 109//109 13//13
f 13//13 109//109 10//10
f 105//105 111//111 15//15
f 15//15 111//111 103//103
f 111//111 110//110 103//103
f 103//103 110//110 13//13
f 112//112 105//105 104//104
f 112//112 113//113 105//105
f 114//114 112//112 106//106
f 106//106 112//112 104//104
f 115//115 114//114 107//107
f 107//107 114//114 106//106
f 116//116 107//107 108//108
f 116//116 115//115 107//107
f 117//117 108//108 109//109
f 117//117 116//116 108//108
f 118//118 117//117 110//110
f 110//110 117//117 109//109
f 113//113 111//111 105//105
f 113//113 119//119 111//111
f 119//119 118//118 111//111
f 111//111 118//118 110//110
f 120//120 121//121 112//112
f 112//112 121//121 113//113
f 122//122 112//112 114//114
f 122//122 120//120 112//112
f 123//123 122//122 115//115
f 115//115 122//122 114//114
f 124//124 115//115 116//116
f 124//124 123//123 115//115
f 125//125 124//124 117//117
f 117//117 124//124 116//116
f 126//126 125//125 118//118
f 118//118 125//125 117//117
f 121//121 127//127 113//113
f 113//113 127//127 119//119
f 127//127 118//118 119//119
f 127//127 126//126 118//118
f 6//6 7//7 120//120
f 120//120 7//7 121//121
f 6//6 122//122 5//5
f 6//6 120//120 122//122
f 4//4 122//122 123//123
f 4//4 5//5 122//122
f 1//1 123//123 124//124
f 1//1 4//4 123//123
f 1//1 124//124 2//2
f 2//2 124//124 125//125
f 9//9 125//125 126//126
f 9//9 2//2 125//125
f 8//8 121//121 7//7
f 8//8 127//127 121//121
f 9//9 126//126 8//8
f 8//8 126//126 127//127
